<?xml version="1.0" encoding="UTF-8" standalone="no"?>
<svg
   xmlns:dc="http://purl.org/dc/elements/1.1/"
   xmlns:cc="http://creativecommons.org/ns#"
   xmlns:rdf="http://www.w3.org/1999/02/22-rdf-syntax-ns#"
   xmlns:svg="http://www.w3.org/2000/svg"
   xmlns="http://www.w3.org/2000/svg"
   xmlns:sodipodi="http://sodipodi.sourceforge.net/DTD/sodipodi-0.dtd"
   xmlns:inkscape="http://www.inkscape.org/namespaces/inkscape"
   viewBox="0 0 100 59"
   height="59"
   width="100"
   xml:space="preserve"
   version="1.1"
   id="svg2"
   inkscape:version="0.91 r13725"
   sodipodi:docname="utadeo_logo_eps.svg"><title
     id="title3427">Jorge Tadeo Lozano University logo </title><sodipodi:namedview
     pagecolor="#ffffff"
     bordercolor="#666666"
     borderopacity="1"
     objecttolerance="10"
     gridtolerance="10"
     guidetolerance="10"
     inkscape:pageopacity="0"
     inkscape:pageshadow="2"
     inkscape:window-width="1366"
     inkscape:window-height="706"
     id="namedview99"
     showgrid="false"
     inkscape:showpageshadow="false"
     inkscape:zoom="7.0427835"
     inkscape:cx="46.486874"
     inkscape:cy="33.009075"
     inkscape:window-x="-8"
     inkscape:window-y="-8"
     inkscape:window-maximized="1"
     inkscape:current-layer="g12" /><metadata
     id="metadata8"><rdf:RDF><cc:Work
         rdf:about=""><dc:format>image/svg+xml</dc:format><dc:type
           rdf:resource="http://purl.org/dc/dcmitype/StillImage" /><dc:title>Jorge Tadeo Lozano University logo </dc:title></cc:Work></rdf:RDF></metadata><defs
     id="defs6" /><g
     transform="matrix(0.16632923,0,0,-0.15417697,-18.670701,104.90656)"
     id="g10"><g
       transform="matrix(0.1,0,0,0.1,-67.17552,-20.705802)"
       id="g12"><path
         id="path14"
         style="fill:#6d8e9c;fill-opacity:1;fill-rule:nonzero;stroke:none"
         d="m 2988.3767,4127.1902 c 0,-227.2967 -150.2289,-369.6021 -348.025,-369.6021 -197.8587,0 -348.0752,142.3054 -348.0752,369.6021 l 0,595.7007 153.9053,0 0,-590.3505 c 0,-93.0778 46.4042,-215.4119 194.1699,-215.4119 147.7405,0 194.1322,122.3341 194.1322,215.4119 l 0,590.3505 153.8928,0 0,-595.7007"
         inkscape:connector-curvature="0" /><path
         id="path16"
         style="fill:#315190;fill-opacity:1;fill-rule:nonzero;stroke:none"
         d="m 3391.7718,4539.3765 -246.6388,0 0,183.501 683.7959,0 0,-183.501 -246.6638,0 0,-757.8146 -190.4933,0 0,757.8146"
         inkscape:connector-curvature="0" /><path
         id="path18"
         style="fill:#315190;fill-opacity:1;fill-rule:nonzero;stroke:none"
         d="m 4135.5641,4722.8775 157.5315,0 376.1728,-941.3019 -214.9648,0 -74.4892,199.4427 -335.8707,0 -72.0009,-199.4427 -210.088,0 373.7093,941.3019 z m 73.2512,-273.9105 -105.0003,-292.5206 211.251,0 -106.2507,292.5206"
         inkscape:connector-curvature="0" /><path
         id="path20"
         style="fill:#315190;fill-opacity:1;fill-rule:nonzero;stroke:none"
         d="m 4767.7287,4722.8775 285.7403,0 c 278.4626,0 511.6964,-129.0047 511.6964,-473.367 0,-304.4054 -228.3321,-467.9349 -485.9872,-467.9349 l -311.4495,0 0,941.3019 z m 190.5562,-749.8234 98.8978,0 c 177.0387,0 310.1991,72.9976 310.1991,287.0753 0,184.7671 -135.6113,271.2966 -296.8192,271.2966 l -112.2777,0 0,-558.3719"
         inkscape:connector-curvature="0" /><path
         id="path22"
         style="fill:#315190;fill-opacity:1;fill-rule:nonzero;stroke:none"
         d="m 5713.7814,4722.8775 587.2985,0 0,-191.4515 -396.8177,0 0,-175.5369 374.8973,0 0,-191.5057 -374.8973,0 0,-191.3293 418.8755,0 0,-191.4785 -609.3563,0 0,941.3019"
         inkscape:connector-curvature="0" /><path
         id="path24"
         style="fill:#315190;fill-opacity:1;fill-rule:nonzero;stroke:none"
         d="m 6884.3021,4746.729 c 269.8594,0 466.4925,-192.7176 466.4925,-494.4684 0,-301.887 -196.6331,-494.6725 -466.4925,-494.6725 -269.8972,0 -466.4928,192.7855 -466.4928,494.6725 0,301.7508 196.5956,494.4684 466.4928,494.4684 m 0,-797.6215 c 162.3707,0 268.5714,127.5889 268.5714,303.1531 0,175.3597 -106.2007,303.0034 -268.5714,303.0034 -162.4459,0 -268.5966,-127.6437 -268.5966,-303.0034 0,-175.5642 106.1507,-303.1531 268.5966,-303.1531"
         inkscape:connector-curvature="0" /><path
         id="path26"
         style="fill:#6d8e9c;fill-opacity:1;fill-rule:nonzero;stroke:none"
         d="m 1977.0882,3332.1962 c -12.7796,-9.6248 -27.8725,-14.0222 -49.893,-14.0222 -22.2579,0 -36.8007,4.1251 -50.1805,14.0222 -18.194,13.75 -24.1586,29.8416 -24.1586,65.1696 l 0,117.3784 33.5369,0 0,-119.3935 c 0,-28.6435 13.7051,-42.9378 41.8527,-42.9378 25.8093,0 39.4767,15.1659 39.4767,42.9378 l 0,119.3935 33.8246,0 0,-117.3784 c 0,-35.328 -5.9271,-51.0928 -24.4588,-65.1696"
         inkscape:connector-curvature="0" /><path
         id="path28"
         style="fill:#6d8e9c;fill-opacity:1;fill-rule:nonzero;stroke:none"
         d="m 2158.766,3320.2299 -75.9897,124.8116 c -0.4753,0.8575 -1.5631,3.4578 -3.7265,7.5421 -1.0627,2.3278 -1.8255,3.8118 -2.113,4.1386 -1.0631,2.3415 -1.6257,3.4715 -2.4636,6.7251 l 0,-141.4613 -32.2115,0 0,192.8128 38.9515,0 74.3142,-126.7313 c 0.275,-0.6536 1.1004,-2.1239 1.9007,-4.2066 0.7878,-2.015 1.3379,-3.1313 1.588,-3.744 l 1.6881,-4.9825 1.6006,-3.4035 0,143.0679 31.899,0 0,-194.5689 -35.4378,0"
         inkscape:connector-curvature="0" /><path
         id="path30"
         style="fill:#6d8e9c;fill-opacity:1;fill-rule:nonzero;stroke:none"
         d="m 2237.2692,3321.986 33.8208,0 0,192.8113 -33.8208,0 0,-192.8113 z"
         inkscape:connector-curvature="0" /><path
         id="path32"
         style="fill:#6d8e9c;fill-opacity:1;fill-rule:nonzero;stroke:none"
         d="m 2379.9956,3316.4316 -23.5836,0 -65.836,198.3672 37.1133,0 40.4395,-130.2708 0.5502,-2.5868 0.5502,-3.2127 0.8253,-3.6076 -0.2376,2.1509 c 0,2.5866 0.2376,3.4578 0.8128,4.9146 l 1.0505,2.3416 38.6013,130.2708 35.4503,0 -65.7362,-198.3672"
         inkscape:connector-curvature="0" /><path
         id="path34"
         style="fill:#6d8e9c;fill-opacity:1;fill-rule:nonzero;stroke:none"
         d="m 2466.114,3321.986 0,192.8128 107.8638,0 0,-31.2984 -74.0765,0 0,-47.5395 60.6591,0 0,-31.2574 -60.6591,0 0,-51.4194 77.5403,0 0,-31.2981 -111.3276,0"
         inkscape:connector-curvature="0" /><path
         id="path36"
         style="fill:#6d8e9c;fill-opacity:1;fill-rule:nonzero;stroke:none"
         d="m 2699.3103,3321.986 -40.5146,77.1224 -16.906,0 0,-77.1224 -33.8122,0 0,192.8128 59.0213,0 c 25.7842,0 37.6259,-3.4579 48.0048,-14.2673 9.6784,-9.6251 14.5677,-23.7154 14.5677,-41.7537 0,-15.0025 -3.2762,-26.9553 -9.691,-36.2536 -6.6524,-9.4072 -12.8421,-13.4914 -27.6849,-17.8207 l 44.0783,-82.7175 -37.0634,0 z m -35.3626,161.5144 -22.058,0 0,-53.0802 22.058,0 c 21.4576,0 30.8485,8.1955 30.8485,27.4317 0,18.3517 -8.8657,25.6485 -30.8485,25.6485"
         inkscape:connector-curvature="0" /><path
         id="path38"
         style="fill:#6d8e9c;fill-opacity:1;fill-rule:nonzero;stroke:none"
         d="m 2862.5566,3468.9338 c -18.8069,9.094 -34.1123,13.818 -45.9041,13.818 -15.8557,0 -26.0593,-7.0791 -26.0593,-17.8887 0,-8.1409 4.3015,-13.1508 16.8935,-20.4208 27.1098,-15.7648 44.8661,-28.0579 53.1692,-37.1384 7.5151,-8.2229 12.0418,-21.0335 12.0418,-34.4568 0,-34.4566 -23.0208,-54.6731 -62.1974,-54.6731 -5.4145,0 -10.804,0.245 -15.8932,1.1164 -12.617,1.8107 -18.5067,4.1521 -37.0384,13.5593 -2.4133,1.198 -6.4273,3.1584 -11.5666,5.8132 l 14.2551,33.844 c 12.8797,-7.5966 18.2817,-10.4691 25.2217,-13.4233 8.8531,-3.4579 18.5191,-5.4726 25.459,-5.4726 15.518,0 25.7593,7.5691 25.7593,19.2361 0,8.1412 -3.9764,13.7636 -15.443,20.7069 l -27.435,16.9628 c -31.5112,19.6175 -41.0646,32.4417 -41.0646,53.4207 0,9.7202 2.7134,19.6175 7.0025,26.9554 2.876,4.8737 7.4277,9.8836 13.1173,14.3625 12.8795,9.5434 23.846,12.8243 44.4908,12.8243 11.8918,0 22.3457,-1.4566 33.3371,-4.9417 8.5781,-2.9544 13.4049,-4.9965 25.2466,-11.1498 l -13.3923,-33.0544"
         inkscape:connector-curvature="0" /><path
         id="path40"
         style="fill:#6d8e9c;fill-opacity:1;fill-rule:nonzero;stroke:none"
         d="m 2904.2716,3321.986 33.8207,0 0,192.8113 -33.8207,0 0,-192.8113 z"
         inkscape:connector-curvature="0" /><path
         id="path42"
         style="fill:#6d8e9c;fill-opacity:1;fill-rule:nonzero;stroke:none"
         d="m 3116.2352,3350.2756 c -16.3809,-18.9504 -39.7018,-28.2896 -71.6384,-28.2896 l -65.5235,0 0,192.8128 65.7987,0 c 33.5121,0 54.4447,-8.1956 71.9509,-28.2898 15.3055,-17.834 23.8836,-42.407 23.8836,-67.5788 0,-25.6485 -8.8782,-50.4803 -24.4713,-68.6546 m -32.4867,120.7276 c -9.3783,7.6099 -23.0458,11.4218 -42.3653,11.4218 l -26.822,0 0,-127.9974 26.822,0 c 40.2771,0 62.7977,23.0893 62.7977,64.2302 0,21.9727 -7.7027,42.1214 -20.4324,52.3454"
         inkscape:connector-curvature="0" /><path
         id="path44"
         style="fill:#6d8e9c;fill-opacity:1;fill-rule:nonzero;stroke:none"
         d="m 3264.4259,3321.986 -13.98,47.6756 -59.3087,0 -14.4803,-47.6756 -35.4503,0 64.1481,192.8128 30.311,0 64.223,-192.8128 -35.4628,0 z m -43.7407,148.7721 -20.4197,-69.8665 41.0273,0 -20.6076,69.8665"
         inkscape:connector-curvature="0" /><path
         id="path46"
         style="fill:#6d8e9c;fill-opacity:1;fill-rule:nonzero;stroke:none"
         d="m 3456.4074,3350.2756 c -16.3808,-18.9504 -39.7017,-28.2896 -71.6507,-28.2896 l -65.4734,0 0,192.8128 65.7235,0 c 33.6371,0 54.5071,-8.1956 71.9508,-28.2898 15.293,-17.834 23.9086,-42.407 23.9086,-67.5788 0,-25.6485 -8.8281,-50.4803 -24.4588,-68.6546 m -32.4617,120.7276 c -9.3909,7.6099 -23.0208,11.4218 -42.4027,11.4218 l -26.8722,0 0,-127.9974 26.8722,0 c 40.277,0 62.8226,23.0893 62.8226,64.2302 0,21.9727 -7.7153,42.1214 -20.4199,52.3454"
         inkscape:connector-curvature="0" /><path
         id="path48"
         style="fill:#6d8e9c;fill-opacity:1;fill-rule:nonzero;stroke:none"
         d="m 3703.4588,3348.6146 c -16.356,-19.0457 -39.7269,-28.3847 -71.6383,-28.3847 l -65.4485,0 0,192.8399 65.7485,0 c 33.5372,0 54.4571,-8.1955 71.901,-28.2897 15.2805,-17.8341 23.896,-42.4069 23.896,-67.4564 0,-25.8391 -8.8657,-50.6165 -24.4587,-68.7091 m -32.4867,120.6595 c -9.3784,7.542 -22.9959,11.354 -42.4153,11.354 l -26.8595,0 0,-127.9429 26.8595,0 c 40.302,0 62.8602,23.1026 62.8602,64.3118 0,21.823 -7.7654,42.0667 -20.4449,52.2771"
         inkscape:connector-curvature="0" /><path
         id="path50"
         style="fill:#6d8e9c;fill-opacity:1;fill-rule:nonzero;stroke:none"
         d="m 3756.3653,3320.2299 0,192.8399 107.9138,0 0,-31.1757 -74.0141,0 0,-47.6621 60.5467,0 0,-31.2573 -60.5467,0 0,-51.4332 77.4777,0 0,-31.3116 -111.3774,0"
         inkscape:connector-curvature="0" /><path
         id="path52"
         style="fill:#6d8e9c;fill-opacity:1;fill-rule:nonzero;stroke:none"
         d="m 4038.6167,3320.2299 -72.2384,0 0,192.8399 64.2105,0 c 23.0458,0 34.5749,-3.1993 44.2784,-12.8106 8.6282,-8.1411 13.9175,-21.9048 13.9175,-34.511 0,-10.8368 -3.7762,-22.1634 -10.2035,-30.3453 -7.7779,-9.6521 -15.0805,-13.1238 -28.9855,-14.0767 26.8596,-0.5991 43.7532,-19.5632 43.7532,-49.5953 0,-33.3267 -19.357,-51.501 -54.7322,-51.501 m -14.7428,163.6656 -22.133,0 0,-49.6635 20.1572,0 c 19.0694,0 29.3482,8.7265 29.3482,25.1584 0,15.4109 -10.2788,24.5051 -27.3724,24.5051 m 0,-80.9208 -22.133,0 0,-53.2166 22.133,0 c 10.4038,0 15.3055,0.9258 20.3574,3.4579 7.5026,4.1522 12.1168,12.6882 12.1168,22.5718 0,17.4939 -11.5416,27.1869 -32.4742,27.1869"
         inkscape:connector-curvature="0" /><path
         id="path54"
         style="fill:#6d8e9c;fill-opacity:1;fill-rule:nonzero;stroke:none"
         d="m 4204.2137,3316.4316 c -55.345,0 -94.1963,41.4539 -94.1963,100.1977 -0.3626,59.7104 38.1262,99.9938 94.1963,99.9938 55.8076,0 93.8838,-40.2834 93.8838,-99.9938 0,-58.7438 -38.9265,-100.1977 -93.8838,-100.1977 m 0,168.3351 c -33.587,0 -58.2585,-29.2562 -58.2585,-68.1374 0,-39.1124 24.6715,-68.0284 58.2585,-68.0284 33.1995,0 57.9333,28.916 57.9333,68.0284 0,38.8812 -24.7338,68.1374 -57.9333,68.1374"
         inkscape:connector-curvature="0" /><path
         id="path56"
         style="fill:#6d8e9c;fill-opacity:1;fill-rule:nonzero;stroke:none"
         d="m 4458.5302,3322.9116 c -18.7819,-4.683 -29.6858,-6.48 -44.5536,-6.48 -58.7585,0 -99.5733,40.9366 -99.5733,100.5518 0,29.2424 10.1912,54.6185 29.248,73.6508 18.3066,18.1608 38.6639,25.703 69.2375,25.703 12.9546,0 25.7968,-1.4703 37.0382,-4.3973 8.6032,-2.3417 14.0551,-4.3564 26.322,-10.2377 l -7.9404,-30.6448 c -6.5398,2.6003 -11.3791,4.2747 -14.5802,5.5544 -12.6421,4.6696 -25.159,6.9432 -36.5006,6.9432 -39.6643,0 -67.3867,-26.6423 -67.3867,-64.7747 0,-39.4394 30.3483,-69.6484 69.7877,-69.6484 8.0653,0 12.6418,0.9531 23.1207,4.0841 l 0,53.203 33.8371,0 0,-78.8377 c -8.0778,-2.0693 -13.9426,-3.4716 -18.0564,-4.6697"
         inkscape:connector-curvature="0" /><path
         id="path58"
         style="fill:#6d8e9c;fill-opacity:1;fill-rule:nonzero;stroke:none"
         d="m 4594.1039,3316.4316 c -55.27,0 -94.1589,41.4539 -94.1589,100.1977 -0.2751,59.7104 38.1137,99.9938 94.1589,99.9938 55.8951,0 94.0088,-40.2834 94.0088,-99.9938 0,-58.7438 -38.9765,-100.1977 -94.0088,-100.1977 m 0,168.3351 c -33.4746,0 -58.1585,-29.2562 -58.1585,-68.1374 0,-39.1124 24.6839,-68.0284 58.1585,-68.0284 33.3619,0 58.0207,28.916 58.0207,68.0284 0,38.8812 -24.6588,68.1374 -58.0207,68.1374"
         inkscape:connector-curvature="0" /><path
         id="path60"
         style="fill:#6d8e9c;fill-opacity:1;fill-rule:nonzero;stroke:none"
         d="m 4779.9456,3481.8941 0,-161.6642 -33.7371,0 0,161.6642 -53.1691,0 0,31.162 140.1129,0 0,-31.162 -53.2067,0"
         inkscape:connector-curvature="0" /><path
         id="path62"
         style="fill:#6d8e9c;fill-opacity:1;fill-rule:nonzero;stroke:none"
         d="m 4939.703,3320.2299 -13.9299,47.6892 -59.3463,0 -14.3803,-47.6892 -35.4877,0 64.1482,192.8399 30.3357,0 64.0606,-192.8399 -35.4003,0 z m -43.6907,148.7581 -20.4322,-69.907 41.0271,0 -20.5949,69.907 z m 8.278,52.781 -24.8588,0 25.1714,34.5792 30.0859,0 -30.3985,-34.5792"
         inkscape:connector-curvature="0" /><path
         id="path64"
         style="fill:#6d8e9c;fill-opacity:1;fill-rule:nonzero;stroke:none"
         d="m 5082.2918,3275.1543 c -5.402,-9.6658 -8.6031,-14.5532 -17.4188,-26.5742 l -25.2216,18.4331 c 9.0784,15.4925 10.9415,19.5631 14.9181,28.3848 6.2646,14.0223 8.6279,27.9765 8.6279,48.7513 l 0,165.3265 33.5497,0 0,-198.3945 c -4.8019,-16.9493 -7.2026,-23.1027 -14.4553,-35.927"
         inkscape:connector-curvature="0" /><path
         id="path66"
         style="fill:#6d8e9c;fill-opacity:1;fill-rule:nonzero;stroke:none"
         d="m 5219.6787,3312.8238 c -55.3073,0 -94.1964,41.5495 -94.1964,100.2932 -0.3002,59.615 38.0513,99.9528 94.1964,99.9528 55.8451,0 93.9213,-40.3378 93.9213,-99.9528 0,-58.7437 -38.9266,-100.2932 -93.9213,-100.2932 m 0,168.3352 c -33.5746,0 -58.2459,-29.2424 -58.2459,-68.042 0,-39.2487 24.6713,-68.0965 58.2459,-68.0965 33.2245,0 57.9458,28.8478 57.9458,68.0965 0,38.7996 -24.7213,68.042 -57.9458,68.042"
         inkscape:connector-curvature="0" /><path
         id="path68"
         style="fill:#6d8e9c;fill-opacity:1;fill-rule:nonzero;stroke:none"
         d="m 5434.2183,3316.5675 -40.5772,77.2452 -16.8434,0 0,-77.2452 -33.7746,0 0,192.9083 58.9836,0 c 25.7593,0 37.651,-3.4035 48.0422,-14.3081 9.5911,-9.5299 14.5303,-23.6337 14.5303,-41.6584 0,-15.0162 -3.3636,-26.9555 -9.6785,-36.3082 -6.6899,-9.3526 -12.8795,-13.4367 -27.6849,-17.8341 l 44.0533,-82.7995 -37.0508,0 z m -35.4877,161.7053 -21.9329,0 0,-53.2709 21.9329,0 c 21.5077,0 30.9986,8.2636 30.9986,27.5817 0,18.2969 -8.9031,25.6892 -30.9986,25.6892"
         inkscape:connector-curvature="0" /><path
         id="path70"
         style="fill:#6d8e9c;fill-opacity:1;fill-rule:nonzero;stroke:none"
         d="m 5625.5121,3319.2904 c -18.8317,-4.6832 -29.7983,-6.4801 -44.5786,-6.4801 -58.7586,0 -99.5483,40.9911 -99.5483,100.5789 0,29.2154 10.1787,54.6733 29.2481,73.6373 18.2816,18.1745 38.6513,25.7029 69.2498,25.7029 12.8297,0 25.7968,-1.3885 36.9884,-4.3428 8.6406,-2.3143 13.9924,-4.3837 26.3345,-10.2648 l -8.1154,-30.6583 c -6.3523,2.6139 -11.1916,4.2747 -14.4302,5.4863 -12.6421,4.792 -25.2466,7.1474 -36.4632,7.1474 -39.7392,0 -67.4117,-26.5879 -67.4117,-64.9245 0,-39.5209 30.2858,-69.6484 69.8,-69.6484 8.103,0 12.6671,0.9395 23.1584,4.0977 l 0,53.2166 33.7622,0 0,-78.8787 c -8.0655,-2.0692 -13.9676,-3.4035 -17.994,-4.6695"
         inkscape:connector-curvature="0" /><path
         id="path72"
         style="fill:#6d8e9c;fill-opacity:1;fill-rule:nonzero;stroke:none"
         d="m 5682.2199,3316.5675 0,192.9083 107.8638,0 0,-31.203 -74.0765,0 0,-47.5395 60.5841,0 0,-31.3663 -60.5841,0 0,-51.3514 77.5027,0 0,-31.4481 -111.29,0"
         inkscape:connector-curvature="0" /><path
         id="path74"
         style="fill:#6d8e9c;fill-opacity:1;fill-rule:nonzero;stroke:none"
         d="m 5958.7318,3478.2728 0,-161.7053 -33.7872,0 0,161.7053 -53.1565,0 0,31.203 140.0379,0 0,-31.203 -53.0942,0"
         inkscape:connector-curvature="0" /><path
         id="path76"
         style="fill:#6d8e9c;fill-opacity:1;fill-rule:nonzero;stroke:none"
         d="m 6118.5518,3316.5675 -13.9925,47.7983 -59.3214,0 -14.4801,-47.7983 -35.4503,0 64.148,192.9083 30.2984,0 64.1481,-192.9083 -35.3502,0 z m -43.7658,148.8267 -20.4573,-69.7711 41.0898,0 -20.6325,69.7711"
         inkscape:connector-curvature="0" /><path
         id="path78"
         style="fill:#6d8e9c;fill-opacity:1;fill-rule:nonzero;stroke:none"
         d="m 6310.5332,3345.007 c -16.3558,-19.0324 -39.7892,-28.4395 -71.6006,-28.4395 l -65.5861,0 0,192.9083 65.7236,0 c 33.5996,0 54.557,-8.141 72.026,-28.3305 15.2929,-17.8341 23.8585,-42.3253 23.8585,-67.4428 0,-25.7713 -8.8408,-50.6027 -24.4214,-68.6955 m -32.4241,120.6595 c -9.4408,7.678 -23.0707,11.4084 -42.4778,11.4084 l -26.8346,0 0,-127.943 26.8346,0 c 40.2646,0 62.7601,23.0618 62.7601,64.2573 0,21.8774 -7.7028,42.0668 -20.2823,52.2773"
         inkscape:connector-curvature="0" /><path
         id="path80"
         style="fill:#6d8e9c;fill-opacity:1;fill-rule:nonzero;stroke:none"
         d="m 6363.3898,3316.5675 0,192.9083 107.9263,0 0,-31.203 -74.0892,0 0,-47.5395 60.6343,0 0,-31.3663 -60.6343,0 0,-51.3514 77.5904,0 0,-31.4481 -111.4275,0"
         inkscape:connector-curvature="0" /><path
         id="path82"
         style="fill:#6d8e9c;fill-opacity:1;fill-rule:nonzero;stroke:none"
         d="m 6583.1813,3312.8238 c -55.2825,0 -94.109,41.5495 -94.109,100.2932 -0.3375,59.615 38.0639,99.9528 94.109,99.9528 55.9076,0 94.0213,-40.3378 94.0213,-99.9528 0,-58.7437 -38.964,-100.2932 -94.0213,-100.2932 m 0,168.3352 c -33.4496,0 -58.1584,-29.2424 -58.1584,-68.042 0,-39.2487 24.7088,-68.0965 58.1584,-68.0965 33.337,0 58.0209,28.8478 58.0209,68.0965 0,38.7996 -24.6839,68.042 -58.0209,68.042"
         inkscape:connector-curvature="0" /><path
         id="path84"
         style="fill:#6d8e9c;fill-opacity:1;fill-rule:nonzero;stroke:none"
         d="m 6776.5633,3316.5675 0,192.9083 33.8496,0 0,-161.4602 72.4637,0 0,-31.4481 -106.3133,0"
         inkscape:connector-curvature="0" /><path
         id="path86"
         style="fill:#6d8e9c;fill-opacity:1;fill-rule:nonzero;stroke:none"
         d="m 6981.2618,3312.8238 c -55.3073,0 -94.1587,41.5495 -94.1587,100.2932 -0.2753,59.615 38.0762,99.9528 94.1587,99.9528 55.8451,0 93.9713,-40.3378 93.9713,-99.9528 0,-58.7437 -38.914,-100.2932 -93.9713,-100.2932 m 0,168.3352 c -33.512,0 -58.2959,-29.2424 -58.2959,-68.042 0,-39.2487 24.7839,-68.0965 58.2959,-68.0965 33.2245,0 57.9083,28.8478 57.9083,68.0965 0,38.7996 -24.6838,68.042 -57.9083,68.042"
         inkscape:connector-curvature="0" /><path
         id="path88"
         style="fill:#6d8e9c;fill-opacity:1;fill-rule:nonzero;stroke:none"
         d="m 7086.2621,3316.5675 0,24.015 96.047,137.6903 -94.4589,0 0,31.203 140.0878,0 0,-23.838 -94.4464,-137.6222 94.4464,0 0,-31.4481 -141.6759,0"
         inkscape:connector-curvature="0" /><path
         id="path90"
         style="fill:#6d8e9c;fill-opacity:1;fill-rule:nonzero;stroke:none"
         d="m 7363.3241,3316.5675 -13.9674,47.7983 -59.2839,0 -14.5302,-47.7983 -35.4378,0 64.1606,192.9083 30.361,0 64.1731,-192.9083 -35.4754,0 z m -43.7407,148.8267 -20.4698,-69.7711 41.1398,0 -20.67,69.7711"
         inkscape:connector-curvature="0" /><path
         id="path92"
         style="fill:#6d8e9c;fill-opacity:1;fill-rule:nonzero;stroke:none"
         d="m 7536.2989,3314.8931 -75.9274,124.73 c -0.5751,1.0074 -1.7131,3.6076 -3.7512,7.6783 -1.188,2.4096 -1.9258,3.8118 -2.1883,4.0705 -1.0129,2.2736 -1.5882,3.4714 -2.3759,6.7524 l 0,-141.5568 -32.2116,0 0,192.9083 38.8139,0 74.3643,-126.7314 c 0.4001,-0.6126 1.1379,-2.0691 1.9132,-4.1385 0.7753,-2.0694 1.363,-3.2809 1.588,-3.812 l 1.6756,-4.9553 1.6006,-3.3899 0,143.0271 31.9365,0 0,-194.5827 -35.4377,0"
         inkscape:connector-curvature="0" /><path
         id="path94"
         style="fill:#6d8e9c;fill-opacity:1;fill-rule:nonzero;stroke:none"
         d="m 7696.2439,3312.8238 c -55.2449,0 -94.1714,41.5495 -94.1714,100.2932 -0.2501,59.615 38.0636,99.9528 94.1714,99.9528 55.8451,0 93.9463,-40.3378 93.9463,-99.9528 0,-58.7437 -38.9266,-100.2932 -93.9463,-100.2932 m 0,168.3352 c -33.5246,0 -58.2834,-29.2424 -58.2834,-68.042 0,-39.2487 24.7588,-68.0965 58.2834,-68.0965 33.3119,0 57.9333,28.8478 57.9333,68.0965 0,38.7996 -24.6214,68.042 -57.9333,68.042"
         inkscape:connector-curvature="0" /><path
         id="path96"
         style="fill:#315190;fill-opacity:1;fill-rule:nonzero;stroke:none"
         d="m 3932.5535,5076.7693 0,1310.6318 1592.5849,345.5601 0,-134.355 -1446.2822,-287.8783 0,-1197.3101 -146.3027,-36.6485"
         inkscape:connector-curvature="0" /><path
         id="path98"
         style="fill:#315190;fill-opacity:1;fill-rule:nonzero;stroke:none"
         d="m 4167.2254,5108.2854 0,1102.2445 1321.2999,215.6707 0,-122.8106 -1175.485,-159.9081 0,-999.8823 -145.8149,-35.3142"
         inkscape:connector-curvature="0" /><path
         id="path100"
         style="fill:#315190;fill-opacity:1;fill-rule:nonzero;stroke:none"
         d="m 4408.4871,5142.8101 0,879.4813 1041.0492,128.2561 0,-82.9356 -909.8395,-93.6088 0,-800.3442 -131.2097,-30.8488"
         inkscape:connector-curvature="0" /><path
         id="path102"
         style="fill:#315190;fill-opacity:1;fill-rule:nonzero;stroke:none"
         d="m 5943.6264,5076.7693 0,1275.971 -40.3771,13.3552 0,258.0775 -51.0432,18.651 0,290.9685 -138.2498,48.9691 0,-1952.7286 229.6701,46.7363"
         inkscape:connector-curvature="0" /><path
         id="path104"
         style="fill:#6d8e9c;fill-opacity:1;fill-rule:nonzero;stroke:none"
         d="m 3829.8042,5479.0856 0,1036.9118 1884.1521,466.7642 -2025.5905,-301.8462 141.4384,-1201.8298"
         inkscape:connector-curvature="0" /></g></g></svg>